<svg width="41" height="28" viewBox="0 0 41 28" fill="none" xmlns="http://www.w3.org/2000/svg">
<path d="M16.5511 12.5164C16.5511 12.5164 20.4305 12.2045 20.4305 7.2998C20.4305 2.38872 17.2564 0 13.2335 0H0V27.4215H13.2335C13.2335 27.4215 21.3142 27.6951 21.3142 19.3261C21.3122 19.324 21.6649 12.5164 16.5511 12.5164ZM5.83143 4.87078H13.2335C13.2335 4.87078 15.0338 4.87078 15.0338 7.72196C15.0338 10.5774 13.9757 10.9911 12.7742 10.9911H5.83143V4.87078ZM12.8583 22.5464H5.83143V15.2169H13.2335C13.2335 15.2169 15.9155 15.1787 15.9155 18.9825C15.9155 22.19 13.9122 22.5231 12.8583 22.5464ZM32.0872 6.9731C22.3046 6.9731 22.3128 17.5102 22.3128 17.5102C22.3128 17.5102 21.6444 27.9921 32.0872 27.9921C32.0872 27.9921 40.7872 28.531 40.7872 20.7008H36.3131C36.3131 20.7008 36.4608 23.6517 32.2369 23.6517C32.2369 23.6517 27.7587 23.9741 27.7587 18.8785H40.9287C40.9307 18.8764 42.3824 6.9731 32.0872 6.9731ZM36.0671 15.2169H27.7136C27.7136 15.2169 28.2591 10.9911 32.1877 10.9911C36.1163 10.9911 36.0671 15.2169 36.0671 15.2169ZM37.1067 1.61016H26.6146V4.9917H37.1067V1.61016Z" fill="white"/>
</svg>
