<svg width="40" height="40" viewBox="0 0 40 40" fill="none" xmlns="http://www.w3.org/2000/svg">
<path fill-rule="evenodd" clip-rule="evenodd" d="M20 0C8.95328 0 0 9.17991 0 20.5063C0 29.5649 5.7289 37.2521 13.6776 39.966C14.6782 40.1511 15.0391 39.5199 15.0391 38.9771C15.0391 38.4898 15.0231 37.1987 15.017 35.4902C9.45258 36.7279 8.27752 32.7393 8.27752 32.7393C7.37116 30.3708 6.05775 29.7396 6.05775 29.7396C4.24303 28.467 6.19611 28.4958 6.19611 28.4958C8.20533 28.6397 9.25807 30.6093 9.25807 30.6093C11.0427 33.7426 13.9422 32.838 15.0772 32.3137C15.2597 30.9876 15.781 30.083 16.3505 29.571C11.911 29.055 7.24283 27.2951 7.24283 19.4351C7.24283 17.2003 8.02286 15.3663 9.29617 13.9354C9.09364 13.4152 8.40184 11.3284 9.49469 8.50761C9.49469 8.50761 11.173 7.95455 14.993 10.6068C16.6244 10.1517 18.3073 9.91943 19.998 9.91595C21.6888 9.91876 23.3717 10.151 25.003 10.6068C28.8249 7.9525 30.5013 8.50761 30.5013 8.50761C31.5941 11.3284 30.9084 13.4152 30.6998 13.9354C31.9832 15.3663 32.7532 17.1982 32.7532 19.4351C32.7532 27.3156 28.081 29.0468 23.6254 29.5546C24.3373 30.1878 24.9789 31.4379 24.9789 33.3499C24.9789 36.0926 24.9549 38.3048 24.9549 38.9771C24.9549 39.526 25.3118 40.1634 26.3325 39.9619C34.2771 37.2439 40 29.5628 40 20.5063C40 9.17991 31.0467 0 20 0Z" fill="white"/>
</svg>
