<svg width="35" height="35" viewBox="0 0 35 35" fill="none" xmlns="http://www.w3.org/2000/svg">
<path d="M4.14773 8.21607C6.43845 8.21607 8.29545 6.37684 8.29545 4.10804C8.29545 1.83923 6.43845 0 4.14773 0C1.857 0 0 1.83923 0 4.10804C0 6.37684 1.857 8.21607 4.14773 8.21607Z" fill="white"/>
<path d="M12.2121 11.3289V34.1202H19.3568V22.8494C19.3568 19.8754 19.9217 16.9953 23.6448 16.9953C27.3168 16.9953 27.3623 20.3955 27.3623 23.0372V34.1221H34.5108V21.6234C34.5108 15.4839 33.1763 10.7656 25.931 10.7656C22.4525 10.7656 20.1208 12.6563 19.1673 14.4456H19.0706V11.3289H12.2121ZM0.568848 11.3289H7.725V34.1202H0.568848V11.3289Z" fill="white"/>
</svg>
